<svg id="Layer_1" data-name="Layer 1" xmlns="http://www.w3.org/2000/svg" viewBox="0 0 711.11 832.59"><defs><style>.cls-1{fill:#ffcd58;}.cls-2{fill:none;stroke:#ffcd58;stroke-linecap:round;stroke-linejoin:round;stroke-width:30px;}</style></defs><g id="Logo"><path class="cls-1" d="M835.46,302.83l-89-62.33L483.08,286.93l19.49,110.52,52.67,9.2,72.06,102.7L600.76,661.47l-45.15,36.77,44.45,55-10.54,61.13,250.33-44.14,62.33-89Zm-297.1,44.42a25,25,0,1,1,25-25A25,25,0,0,1,538.36,347.25ZM682,684.92,627.3,374.65l89.3-15.75,54.71,310.28Z" transform="translate(-191.07 -124.94)"/><path id="B" class="cls-1" d="M582.36,650.36l24-136.22-62.34-89-37.77-6.66-221.8-39.11-93.4,529.74,274.7,48.44,89-62.33,17.77-100.8L578.81,759l-16-19.89-35.2-43.76,24-19.72Zm-282-218.11a25,25,0,1,1,25,25A25,25,0,0,1,300.34,432.25ZM435.93,839.12,335.28,821.38,353,720.73l100.65,17.75Zm22-213L372.38,611,390,511.1l85.52,15.08Z" transform="translate(-191.07 -124.94)"/></g><g id="LeftString"><path id="String" class="cls-2" d="M325.34,432.25s174.84-123,69.14-166.66c-145.28-60-11.13-125.65-11.13-125.65" transform="translate(-191.07 -124.94)"/></g><g id="RightString"><path id="String-2" data-name="String" class="cls-2" d="M538.36,322.25s-6.23-137-84.86-125.75c-98.42,14.12-158.38,8.38-203.56-40.32" transform="translate(-191.07 -124.94)"/></g></svg>